<svg width="150" height="150" viewBox="0 0 150 150" fill="none" xmlns="http://www.w3.org/2000/svg">
<circle cx="75" cy="75" r="75" fill="white"/>
<path d="M46.2924 45.232V52H57.6684V53.152H46.2924V124H36.2124V53.152H33.1884V52H36.2124V45.232C36.2124 34.768 38.4684 27.328 42.9804 22.912C47.4924 18.4 54.7884 16.096 64.8684 16V17.152C58.2444 17.248 53.4924 19.504 50.6124 23.92C47.7324 28.24 46.2924 35.344 46.2924 45.232Z" fill="black"/>
<path d="M117.933 57.04C116.397 55.792 113.901 54.736 110.445 53.872C107.085 53.008 104.541 52.576 102.813 52.576C101.085 52.576 100.077 52.576 99.789 52.576C94.605 52.672 90.861 54.016 88.557 56.608C86.253 59.104 85.101 61.936 85.101 65.104C85.101 68.272 86.109 70.96 88.125 73.168C90.141 75.28 92.637 76.96 95.613 78.208C98.685 79.36 101.949 80.704 105.405 82.24C108.957 83.776 112.221 85.36 115.197 86.992C118.269 88.528 120.813 90.832 122.829 93.904C124.845 96.88 125.853 100.624 125.853 105.136C125.853 109.648 124.269 113.488 121.101 116.656C117.933 119.824 114.381 121.936 110.445 122.992C106.605 124.048 102.429 124.576 97.917 124.576C88.125 124.576 80.781 122.416 75.885 118.096L76.749 117.232C78.669 119.056 81.501 120.544 85.245 121.696C89.085 122.848 92.781 123.424 96.333 123.424C101.997 123.424 106.653 121.888 110.301 118.816C114.045 115.648 115.917 111.76 115.917 107.152C115.917 102.448 114.525 98.704 111.741 95.92C108.957 93.04 105.549 90.832 101.517 89.296C97.581 87.664 93.597 86.08 89.565 84.544C85.533 82.912 82.125 80.704 79.341 77.92C76.557 75.04 75.165 71.728 75.165 67.984C75.165 64.24 76.029 61.216 77.757 58.912C79.485 56.512 81.789 54.832 84.669 53.872C89.565 52.24 94.461 51.424 99.357 51.424C107.613 51.424 114.045 52.96 118.653 56.032L117.933 57.04Z" fill="black"/>
</svg>
