<svg width="150" height="150" viewBox="0 0 150 150" fill="none" xmlns="http://www.w3.org/2000/svg">
<path d="M74.8476 150C89.6877 150.03 104.203 145.657 116.557 137.434C128.911 129.211 138.547 117.509 144.247 103.807C149.947 90.1051 151.454 75.0203 148.577 60.4617C145.701 45.9031 138.57 32.5252 128.087 22.021C117.604 11.5168 104.241 4.35859 89.6879 1.45233C75.1352 -1.45394 60.0474 0.0223872 46.3341 5.69445C32.6208 11.3665 20.8984 20.9793 12.6505 33.3163C4.40264 45.6533 9.9561e-05 60.1598 6.89285e-05 74.9999C-0.0132803 84.8399 1.91249 94.5862 5.66733 103.682C9.42217 112.777 14.9325 121.044 21.8834 128.009C28.8343 134.974 37.0895 140.501 46.1774 144.274C55.2652 148.048 65.0076 149.993 74.8476 150V150Z" fill="white"/>
<path d="M44.7675 81V38.4H72.4875V41.16H47.8275V58.08H68.7675V60.72H47.8275V81H44.7675Z" fill="black"/>
<path d="M106.696 81.48C103.896 78.4 99.9959 76.86 94.9959 76.86C90.8359 76.86 87.7959 77.66 85.8759 79.26C83.9959 80.82 83.0559 82.94 83.0559 85.62C83.0559 87.42 83.4959 88.86 84.3759 89.94C85.2559 90.98 86.5959 91.82 88.3959 92.46C90.2359 93.1 92.6159 93.72 95.5359 94.32C98.6159 94.96 101.276 95.72 103.516 96.6C105.756 97.44 107.476 98.6 108.676 100.08C109.916 101.56 110.536 103.56 110.536 106.08C110.536 109.84 109.136 112.66 106.336 114.54C103.536 116.42 99.8559 117.36 95.2959 117.36C88.6959 117.36 83.0759 115.24 78.4359 111L80.0559 108.54C81.8159 110.38 83.9959 111.86 86.5959 112.98C89.2359 114.1 92.1759 114.66 95.4159 114.66C99.0959 114.66 101.996 113.98 104.116 112.62C106.236 111.22 107.296 109.16 107.296 106.44C107.296 104.56 106.796 103.04 105.796 101.88C104.836 100.72 103.356 99.78 101.356 99.06C99.3959 98.3 96.9159 97.6 93.9159 96.96C90.9159 96.32 88.3759 95.6 86.2959 94.8C84.2159 94 82.6359 92.92 81.5559 91.56C80.4759 90.2 79.9359 88.36 79.9359 86.04C79.9359 83.48 80.5559 81.32 81.7959 79.56C83.0759 77.76 84.8359 76.4 87.0759 75.48C89.3559 74.56 91.9959 74.1 94.9959 74.1C97.7559 74.1 100.216 74.52 102.376 75.36C104.536 76.16 106.496 77.4 108.256 79.08L106.696 81.48Z" fill="black"/>
</svg>
